<svg xmlns="http://www.w3.org/2000/svg" width="189.4" height="46.15" viewBox="0 0 189.4 46.15"><title>mxt-icon--logo</title><g data-name="Layer 1"><path fill="none" d="M104.14 29.77l4.05-5.72-.01-.01-4.04 5.73z"/><path fill="none" stroke="#aecbd6" stroke-linecap="round" stroke-linejoin="round" stroke-width="0" d="M100.67 34.7l-.01.02"/><path fill="#ff8d4e" d="M123.79 46.08h-14.1l-7.14-10.6 7.03-10.5 14.21 21.1z"/><path fill="#b4b4b5" d="M124.52.11h-14.09l-6.98 9.47 7.08 9.68L124.52.11z"/><path fill="#fff" d="M108.42 22.18L92.27.18h-14.1l16.1 22-16.15 23.97h14.09l16.21-23.97zm-84.14-5.09L43 0h5.5v46.1H36.33V22.44l-12 11L12.17 22.5v23.6H0V0h5.47zM57.39 0H69.5v46.1H57.39z"/><path d="M133.53 0h12.11v46.1h-12.11zm19.59 0h36.28v12h-12.21v34.1h-12.1V12h-12z" fill="#ff8d4e"/></g></svg>