<?xml version="1.0" encoding="utf-8"?>
<!-- Generator: Adobe Illustrator 16.0.0, SVG Export Plug-In . SVG Version: 6.00 Build 0)  -->
<!DOCTYPE svg PUBLIC "-//W3C//DTD SVG 1.1//EN" "http://www.w3.org/Graphics/SVG/1.1/DTD/svg11.dtd">
<svg version="1.1" id="Layer_1" xmlns="http://www.w3.org/2000/svg" xmlns:xlink="http://www.w3.org/1999/xlink" x="0px" y="0px"
	 width="492.5px" height="104.5px" viewBox="5.5 202.5 492.5 104.5" enable-background="new 5.5 202.5 492.5 104.5"
	 xml:space="preserve">
<g enable-background="new    ">
	<path fill="#FFFFFF" d="M164.208,291.503v-15.404c0-1.878-0.271-3.295-0.811-4.25c-0.54-0.956-1.408-1.435-2.604-1.435
		c-1.646,0-2.833,0.656-3.564,1.97c-0.73,1.313-1.097,3.564-1.097,6.756v12.363h-9.747V263.26h7.354l1.223,3.489h0.573
		c0.831-1.33,1.981-2.327,3.452-2.991c1.472-0.664,3.162-0.997,5.073-0.997c3.124,0,5.556,0.905,7.292,2.718
		c1.736,1.812,2.605,4.361,2.605,7.651v18.372H164.208L164.208,291.503z"/>
</g>
<g enable-background="new    ">
	<path fill="#FFFFFF" d="M190.034,275.624c1.18-1.878,2.185-3.341,3.016-4.388l6.332-7.978h10.869l-9.796,12.017l10.419,16.228
		h-11.144l-6.182-10.121l-3.166,2.418v7.703h-9.797v-38.788h9.797v15.257c0,2.608-0.183,5.159-0.549,7.652H190.034L190.034,275.624z
		"/>
</g>
<g enable-background="new    ">
	<path fill="#FFFFFF" d="M226.904,292.002c-4.703,0-8.354-1.251-10.955-3.752c-2.602-2.501-3.901-6.062-3.901-10.682
		c0-4.771,1.205-8.43,3.615-10.98c2.409-2.55,5.85-3.826,10.319-3.826c4.254,0,7.541,1.108,9.859,3.327
		c2.318,2.22,3.477,5.414,3.477,9.585v4.338h-17.424c0.066,1.578,0.645,2.816,1.732,3.715c1.088,0.897,2.572,1.346,4.45,1.346
		c1.711,0,3.285-0.162,4.724-0.485c1.438-0.323,2.996-0.877,4.674-1.657v7.005c-1.529,0.78-3.107,1.32-4.736,1.62
		C231.108,291.851,229.163,292.002,226.904,292.002z M226.33,269.391c-1.146,0-2.106,0.361-2.879,1.085
		c-0.773,0.723-1.227,1.855-1.359,3.401h8.376c-0.034-1.361-0.42-2.45-1.159-3.266C228.569,269.8,227.576,269.391,226.33,269.391z"
		/>
</g>
<g enable-background="new    ">
	<path fill="#FFFFFF" d="M240.39,263.26h10.271l4.785,16.202c0.233,0.849,0.392,1.869,0.475,3.066h0.2
		c0.133-1.147,0.332-2.152,0.598-3.017l4.911-16.253h9.946l-11.167,30.037c-1.431,3.822-3.188,6.522-5.272,8.103
		c-2.085,1.578-4.807,2.368-8.164,2.368c-1.296,0-2.626-0.143-3.989-0.424v-7.653c0.881,0.2,1.887,0.3,3.018,0.3
		c0.863,0,1.62-0.167,2.268-0.499c0.648-0.332,1.213-0.802,1.695-1.408c0.481-0.605,0.997-1.6,1.545-2.979L240.39,263.26z"/>
</g>
<g enable-background="new    ">
	<path fill="#FFFFFF" d="M344.495,291.503l-1.869-3.738h-0.2c-1.313,1.629-2.65,2.741-4.014,3.341
		c-1.361,0.598-3.124,0.896-5.283,0.896c-2.66,0-4.754-0.798-6.282-2.394c-1.529-1.596-2.294-3.839-2.294-6.73
		c0-3.008,1.047-5.247,3.141-6.718c2.095-1.471,5.127-2.298,9.101-2.479l4.711-0.149v-0.399c0-2.325-1.146-3.488-3.439-3.488
		c-2.061,0-4.679,0.696-7.853,2.094l-2.817-6.432c3.291-1.695,7.445-2.543,12.465-2.543c3.622,0,6.427,0.896,8.412,2.691
		c1.986,1.795,2.979,4.305,2.979,7.528v18.521H344.495L344.495,291.503z M337.266,285.121c1.181,0,2.188-0.374,3.029-1.121
		c0.839-0.748,1.259-1.721,1.259-2.917v-2.192l-2.243,0.1c-3.207,0.116-4.812,1.296-4.812,3.54
		C334.5,284.258,335.422,285.121,337.266,285.121z"/>
</g>
<g enable-background="new    ">
	<path fill="#FFFFFF" d="M371.665,284.299c1.313,0,2.884-0.323,4.712-0.973v7.104c-1.313,0.564-2.564,0.969-3.753,1.209
		c-1.188,0.24-2.579,0.361-4.176,0.361c-3.272,0-5.633-0.802-7.079-2.405c-1.445-1.604-2.169-4.066-2.169-7.392v-11.642h-3.414
		v-3.964l4.337-3.065l2.519-5.933h6.382v5.657h6.93v7.305h-6.93v10.993C369.024,283.385,369.905,284.299,371.665,284.299z"/>
</g>
<g enable-background="new    ">
	<path fill="#FFFFFF" d="M394.174,292.002c-4.619,0-8.122-1.247-10.507-3.738c-2.386-2.493-3.577-6.074-3.577-10.744
		c0-4.688,1.288-8.317,3.863-10.895c2.575-2.576,6.239-3.863,10.993-3.863c3.273,0,6.356,0.715,9.248,2.145l-2.867,7.204
		c-1.18-0.516-2.268-0.927-3.266-1.234c-0.996-0.307-2.035-0.461-3.115-0.461c-1.579,0-2.801,0.615-3.664,1.845
		c-0.864,1.229-1.297,2.967-1.297,5.211c0,4.521,1.67,6.779,5.011,6.779c2.858,0,5.602-0.831,8.227-2.493v7.753
		C400.713,291.171,397.698,292.002,394.174,292.002z"/>
</g>
<g enable-background="new    ">
	<path fill="#FFFFFF" d="M426.656,291.503v-15.404c0-3.789-1.122-5.685-3.364-5.685c-1.596,0-2.771,0.669-3.527,2.007
		s-1.134,3.562-1.134,6.668v12.414h-9.747v-38.788h9.747v5.511c0,2.491-0.134,5.334-0.398,8.524h0.448
		c0.931-1.463,2.035-2.493,3.314-3.092c1.279-0.598,2.768-0.896,4.462-0.896c3.157,0,5.612,0.909,7.366,2.729
		c1.753,1.819,2.63,4.366,2.63,7.64v18.372H426.656L426.656,291.503z"/>
</g>
<path fill="#FFFFFF" d="M54.093,247.937c0.247-0.016,0.621,0.438,1.122,1.354l11.021,21.017c0.776,1.418,1.4,2.112,1.871,2.088
	c0.246-0.016,0.729-0.886,1.44-2.611c1.501-3.625,3.541-8.629,6.116-15.009l0.823-2.05l1.935,3.629
	c1.64,2.076,3.903,3.356,6.405,3.356c1.25,0,2.44-0.319,3.523-0.899l1.194-0.821l0.606,1.77l2.057,4.039l0.038,1.548
	c0.063,1.978,0.13,3.629,0.204,4.949c0.136,2.444,0.439,6.105,0.914,10.982c0.474,4.877,0.777,8.526,0.912,10.948
	c0.039,0.692-0.267,1.06-0.917,1.097l-11.905,0.662c-0.65,0.036-0.997-0.338-1.041-1.123c-0.126-2.265-0.231-5.665-0.315-10.204
	s-0.188-7.941-0.313-10.206c-0.036-0.647-0.156-0.992-0.36-1.024c-0.24,0.146-1.549,3.694-3.929,10.645
	c-1.395,4.081-2.786,8.15-4.181,12.209c-0.193,0.529-0.458,0.848-0.791,0.956c-0.108,0.028-0.558,0.063-1.343,0.107
	c-1.166,0.064-1.874-0.12-2.123-0.559c-1.348-2.396-3.14-5.896-5.375-10.496c-2.385-4.859-4.166-8.372-5.344-10.532
	c-0.051-0.108-0.159-0.228-0.323-0.354c-0.146,0.211-0.207,0.54-0.182,0.988c0.123,2.195,0.36,5.488,0.719,9.879
	c0.357,4.389,0.596,7.682,0.719,9.88c0.043,0.784-0.249,1.191-0.876,1.229l-11.232,0.625c-0.448,0.025-0.729-0.03-0.836-0.172
	c-0.109-0.141-0.175-0.39-0.193-0.749c-0.136-2.441-0.223-6.122-0.26-11.035c-0.037-4.91-0.123-8.59-0.262-11.032
	c-0.145-2.604-0.526-7.474-1.148-14.612c-0.126-1.86-0.381-4.624-0.768-8.291l-0.063-0.57c-0.047-0.447,0.411-0.696,1.375-0.751
	c1.233-0.067,3.081-0.211,5.543-0.427C51.013,248.147,52.86,248.005,54.093,247.937L54.093,247.937z"/>
<path fill="#FFFFFF" d="M323.695,265.926c0.246,5.432-0.979,9.894-3.678,13.387c-2.89,3.704-7.016,5.679-12.378,5.92
	c-0.897,0.042-2.251,0.052-4.063,0.033c-1.812-0.021-3.166-0.011-4.063,0.029c-0.965,0.043-1.429,0.479-1.394,1.313
	c0.049,1.032,0.22,2.563,0.514,4.597c0.293,2.032,0.464,3.553,0.509,4.563c0.023,0.517-0.2,0.783-0.671,0.806
	c-1.369,0.063-3.424,0.115-6.163,0.161c-2.741,0.045-4.796,0.099-6.165,0.16c-0.647,0.027-0.99-0.281-1.02-0.935
	c-0.112-2.488-0.241-6.23-0.391-11.228c-0.146-4.996-0.275-8.738-0.39-11.229c-0.318-7.044-0.955-14.434-1.911-22.169l-0.055-0.469
	c-0.065-0.424,0.261-0.699,0.975-0.82c1.738-0.303,5.593-0.59,11.563-0.857c3.521-0.16,6.898-0.269,10.136-0.323
	c5.322-0.083,9.684,1.395,13.081,4.434C321.604,256.422,323.455,260.631,323.695,265.926L323.695,265.926z M310.293,267.071
	c-0.236-5.228-2.9-7.727-7.993-7.496c-3.59,0.162-5.465,0.449-5.626,0.861c-0.146,0.298-0.105,2.894,0.115,7.784
	c0.029,0.693,0.104,1.721,0.224,3.073c0.117,1.355,0.191,2.382,0.223,3.075c0.021,0.448,2.05,0.582,6.088,0.399
	C308.191,274.55,310.516,271.984,310.293,267.071L310.293,267.071z"/>
<g enable-background="new    ">
	<path fill="#FFFFFF" d="M450.992,296.343c-0.092,0.238-0.211,0.432-0.356,0.577c-0.146,0.146-0.354,0.267-0.618,0.357
		c-0.266,0.091-0.596,0.16-0.988,0.206c-0.395,0.045-0.894,0.067-1.498,0.067c-0.751,0-1.363-0.036-1.84-0.108
		c-0.477-0.074-0.838-0.185-1.086-0.33c-0.247-0.146-0.389-0.334-0.426-0.563c-0.037-0.229,0-0.499,0.108-0.811l16.431-46.127
		c0.072-0.237,0.183-0.436,0.33-0.591c0.146-0.155,0.348-0.278,0.604-0.37s0.591-0.16,1.003-0.206s0.911-0.069,1.497-0.069
		c0.771,0,1.389,0.037,1.854,0.11c0.468,0.073,0.818,0.183,1.058,0.329c0.238,0.146,0.375,0.335,0.412,0.563
		c0.037,0.229,0.01,0.499-0.082,0.812L450.992,296.343z"/>
	<path fill="#FFFFFF" d="M494.346,273.43c0,0.477-0.02,0.889-0.055,1.235c-0.037,0.349-0.089,0.643-0.152,0.879
		c-0.063,0.238-0.146,0.427-0.246,0.563c-0.102,0.137-0.216,0.232-0.344,0.288l-21.072,10.438c-0.256,0.129-0.477,0.185-0.659,0.165
		c-0.183-0.018-0.334-0.118-0.453-0.302c-0.119-0.183-0.202-0.453-0.247-0.811c-0.046-0.357-0.067-0.812-0.067-1.36
		c0-0.75,0.014-1.346,0.041-1.785c0.026-0.438,0.078-0.787,0.149-1.044c0.073-0.257,0.174-0.444,0.304-0.563
		c0.128-0.118,0.303-0.224,0.521-0.314l15.824-7.418l-15.521-7.198c-0.293-0.128-0.526-0.256-0.7-0.385
		c-0.175-0.128-0.308-0.324-0.398-0.591c-0.092-0.266-0.15-0.622-0.178-1.071c-0.027-0.448-0.041-1.058-0.041-1.827
		c0-0.677,0.021-1.208,0.067-1.593c0.045-0.385,0.128-0.659,0.247-0.824s0.271-0.238,0.453-0.22c0.183,0.018,0.403,0.092,0.659,0.22
		l21.1,10.522c0.238,0.108,0.427,0.401,0.563,0.879C494.278,271.792,494.346,272.496,494.346,273.43z"/>
</g>
<g enable-background="new    ">
	<path fill="#FFFFFF" d="M33.532,284.447c0,0.678-0.027,1.209-0.083,1.594s-0.143,0.659-0.262,0.824
		c-0.12,0.164-0.266,0.238-0.438,0.22c-0.174-0.019-0.398-0.092-0.673-0.22L11.005,276.37c-0.257-0.146-0.444-0.453-0.563-0.92
		c-0.12-0.468-0.179-1.168-0.179-2.102c0-0.478,0.018-0.895,0.055-1.25c0.036-0.357,0.082-0.65,0.138-0.881
		c0.055-0.229,0.132-0.411,0.232-0.549c0.102-0.138,0.215-0.243,0.343-0.315l21.045-10.439c0.53-0.257,0.906-0.206,1.126,0.151
		c0.22,0.355,0.329,1.085,0.329,2.184c0,0.751-0.014,1.348-0.04,1.786c-0.028,0.439-0.078,0.787-0.151,1.044
		s-0.174,0.439-0.302,0.549c-0.128,0.11-0.303,0.221-0.522,0.33l-15.824,7.418l15.522,7.197c0.274,0.129,0.499,0.257,0.673,0.385
		c0.174,0.129,0.307,0.325,0.398,0.591c0.091,0.267,0.154,0.623,0.191,1.071C33.514,283.069,33.532,283.677,33.532,284.447z"/>
</g>
<g>
	<path fill="#FFFFFF" d="M119.117,253.907c6.6,0.028,13.387,4.412,9.31,4.322c-4.078-0.09-3.988-3.114-9.211-3.146
		c-5.224-0.026-5.928,3.61-9.899,3.563C105.346,258.597,112.519,253.878,119.117,253.907L119.117,253.907z"/>
	<path fill="#FFFFFF" d="M130.674,238.351c-5.919-0.599-5.44,7.214-5.312,9.442c1.901-0.031,8.774,1.959,10.324,0.396
		C137.667,246.189,135.738,238.862,130.674,238.351z M131.295,246.751c-1.164,0.152-2.294-1.152-2.526-2.919
		c-0.229-1.765,0.524-3.317,1.688-3.473c1.163-0.152,2.294,1.155,2.524,2.919C133.214,245.044,132.459,246.599,131.295,246.751z"/>
	<path fill="#FFFFFF" d="M107.389,238.357c-5.016,0.844-6.454,8.273-4.349,10.137c1.647,1.457,8.371-0.984,10.269-1.077
		C113.292,245.186,113.251,237.37,107.389,238.357z M109.616,243.972c-0.35,1.744-1.564,2.975-2.717,2.743
		c-1.149-0.229-1.801-1.829-1.45-3.574c0.348-1.746,1.563-2.977,2.715-2.745C109.314,240.625,109.964,242.226,109.616,243.972z"/>
	<path fill="#FFFFFF" d="M140.712,271.759l0.062,0.403c0.074,0.729,0.112,1.469,0.112,2.217c0,9.724-6.405,17.949-15.227,20.693
		l-0.965,0.246l-0.01,0.07c0.112,0.592,0.825,1.115,2.2,1.775c-1.85-0.272-3.094-0.532-4.022-0.942l-0.639-0.409l-0.169,0.023
		l0.111,0.285c0.411,0.951,0.938,1.438,3.015,2.396c-2.366,0.059-4.143-0.562-5.724-1.361l-2.145-1.208l-0.315-0.016
		c-10.93-1.109-19.455-10.338-19.455-21.558c0-0.748,0.037-1.486,0.11-2.217l0.063-0.403l0.266,1.747
		c2.021,9.873,10.761,17.302,21.231,17.302c10.473,0,19.211-7.429,21.229-17.302L140.712,271.759z"/>
	<path fill="#FFFFFF" d="M137.344,275.784l0.059,0.108c0.077,0.198,0.125,0.404,0.146,0.614c0.301,3.367-7.146,6.785-16.632,7.636
		c-9.486,0.848-17.421-1.193-17.725-4.563c-0.019-0.211-0.007-0.421,0.034-0.633l0.039-0.116l0.255,0.474
		c1.853,2.636,8.963,4.104,17.266,3.361c8.301-0.742,15.04-3.451,16.393-6.371L137.344,275.784z"/>
	<path fill="#FFFFFF" d="M152.72,235.544c-1.234,0-2.411,0.316-3.479,0.891l-0.507,0.348l-0.24-1.004
		c-3.396-11.65-12.733-20.507-24.23-22.54l-0.131-0.017l-0.084-0.399c-0.007-1.208,1.291-2.657,5.615-4.853
		c-5.833,0.697-7.99,2.666-9.822,4.769l-0.056,0.063l-0.233-0.451c-1.036-1.771-2.461-3.355-5.135-4.313
		c2.414,2.377,2.881,3.438,2.837,4.423l-0.055,0.427l-0.535,0.021c-12.628,1.111-23.086,10.388-26.728,22.87l-0.242,1.004
		l-0.505-0.348c-1.068-0.572-2.246-0.891-3.479-0.891c-4.938,0-8.941,5.069-8.941,11.322c0,6.252,4.003,11.321,8.941,11.321
		c1.233,0,2.411-0.316,3.479-0.891l1.18-0.811l0.6,1.747c1.551,3.914,3.796,7.437,6.57,10.396l0.354,0.347l0.204-1.139
		c0.605-2.798,1.688-5.397,3.146-7.707l0.53-0.758l-0.729-0.55c-3.355-3.14-5.563-8.458-5.563-14.492
		c0-9.65,5.648-17.478,12.613-17.478c4.354,0,8.193,3.056,10.459,7.706l0.658,1.68l0.659-1.68c2.267-4.649,6.104-7.706,10.458-7.706
		c6.966,0,12.612,7.825,12.612,17.478c0,6.034-2.205,11.354-5.561,14.492l-0.729,0.55l0.531,0.758
		c1.46,2.31,2.542,4.909,3.146,7.707l0.204,1.139l0.354-0.347c2.773-2.959,5.021-6.479,6.57-10.396l0.599-1.747l1.18,0.811
		c1.069,0.572,2.245,0.891,3.479,0.891c4.938,0,8.942-5.069,8.942-11.321C161.662,240.613,157.659,235.544,152.72,235.544z
		 M88.579,250.937c-0.417,0.223-0.876,0.347-1.358,0.347c-1.927,0-3.489-1.978-3.489-4.418s1.563-4.418,3.489-4.418
		c0.482,0,0.941,0.124,1.358,0.347l0.103,0.071l-0.124,2.638c0,1.129,0.053,2.245,0.158,3.346l0.26,1.815L88.579,250.937z
		 M108.44,221.56c-4.924,2.363-11.097,7.747-13.464,13.369c-1.949,2.067-2.973-0.516-2.38-2.507
		c1.214-3.733,5.921-10.344,12.112-13.235C106.733,218.353,109.504,219.192,108.44,221.56z M151.207,251.284
		c-0.482,0-0.941-0.124-1.358-0.347l-0.396-0.272l0.26-1.815c0.104-1.102,0.158-2.217,0.158-3.346l-0.125-2.638l0.103-0.071
		c0.417-0.224,0.876-0.347,1.358-0.347c1.927,0,3.487,1.978,3.487,4.418S153.134,251.284,151.207,251.284z"/>
	<path fill="#FFFFFF" d="M106.277,221.882c0.065,0.095,0.036,0.227-0.063,0.297c-0.103,0.069-0.234,0.053-0.299-0.04
		c-0.065-0.095-0.035-0.226,0.063-0.297C106.078,221.772,106.213,221.79,106.277,221.882L106.277,221.882z"/>
	<path fill="#FFFFFF" d="M104.711,222.783c0.062,0.088,0.037,0.212-0.057,0.276c-0.092,0.063-0.217,0.046-0.277-0.042
		c-0.063-0.088-0.037-0.212,0.056-0.277C104.525,222.675,104.649,222.694,104.711,222.783L104.711,222.783z"/>
	<path fill="#FFFFFF" d="M103.58,223.758c0.062,0.09,0.037,0.214-0.057,0.277c-0.092,0.064-0.218,0.045-0.277-0.043
		c-0.063-0.088-0.037-0.212,0.056-0.277C103.393,223.651,103.518,223.669,103.58,223.758L103.58,223.758z"/>
	<path fill="#FFFFFF" d="M96.484,230.405c0.065,0.092,0.042,0.22-0.05,0.284c-0.092,0.063-0.22,0.042-0.284-0.05
		c-0.063-0.095-0.042-0.221,0.052-0.284C96.292,230.291,96.419,230.313,96.484,230.405L96.484,230.405z"/>
	<path fill="#FFFFFF" d="M95.734,231.844c0.055,0.074,0.023,0.187-0.063,0.247c-0.088,0.063-0.203,0.053-0.256-0.023
		c-0.055-0.076-0.024-0.188,0.063-0.249C95.566,231.757,95.681,231.769,95.734,231.844L95.734,231.844z"/>
	<path fill="#FFFFFF" d="M95.188,233.26c0.044,0.063,0.021,0.157-0.057,0.212c-0.076,0.053-0.173,0.045-0.217-0.02
		c-0.044-0.063-0.021-0.158,0.057-0.21C95.047,233.189,95.145,233.198,95.188,233.26L95.188,233.26z"/>
	<path fill="#FFFFFF" d="M103.047,224.606c-2.135,1.355-4.232,3.603-5.598,5.149c-0.227,0.208-1.967-1.805-1.84-1.928
		c0.576-1.119,2.988-4.096,5.509-5.681C101.367,221.993,103.209,224.462,103.047,224.606L103.047,224.606z"/>
	<path fill="#FFFFFF" d="M95.184,230.65c0.065,0.093,0.042,0.22-0.05,0.284c-0.093,0.063-0.219,0.042-0.284-0.052
		c-0.063-0.092-0.043-0.219,0.05-0.282C94.993,230.536,95.119,230.559,95.184,230.65L95.184,230.65z"/>
	<path fill="#FFFFFF" d="M94.458,232.098c0.053,0.074,0.023,0.187-0.063,0.249c-0.088,0.061-0.203,0.051-0.256-0.025
		c-0.053-0.075-0.024-0.187,0.064-0.249C94.291,232.011,94.405,232.022,94.458,232.098L94.458,232.098z"/>
	<path fill="#FFFFFF" d="M93.813,233.713c0.043,0.063,0.02,0.157-0.058,0.21c-0.076,0.055-0.173,0.045-0.217-0.019
		c-0.044-0.064-0.021-0.156,0.057-0.209C93.672,233.643,93.769,233.65,93.813,233.713L93.813,233.713z"/>
	<path fill="#FFFFFF" d="M94.854,229.411c0.064,0.092,0.042,0.219-0.05,0.284c-0.092,0.063-0.219,0.042-0.284-0.05
		c-0.063-0.092-0.042-0.221,0.049-0.285C94.661,229.295,94.789,229.318,94.854,229.411L94.854,229.411z"/>
	<path fill="#FFFFFF" d="M94.093,230.883c0.054,0.076,0.025,0.188-0.063,0.249c-0.088,0.063-0.201,0.053-0.255-0.022
		c-0.053-0.076-0.022-0.188,0.063-0.249C93.926,230.796,94.041,230.808,94.093,230.883L94.093,230.883z"/>
	<path fill="#FFFFFF" d="M93.427,232.458c0.044,0.063,0.019,0.157-0.057,0.21c-0.075,0.055-0.175,0.044-0.219-0.019
		c-0.044-0.063-0.019-0.157,0.059-0.21C93.287,232.387,93.383,232.395,93.427,232.458L93.427,232.458z"/>
	<path fill="#FFFFFF" d="M106.498,220.297c0.063,0.094,0.035,0.226-0.066,0.294c-0.101,0.071-0.235,0.055-0.299-0.037
		c-0.064-0.094-0.036-0.227,0.063-0.297C106.298,220.187,106.432,220.205,106.498,220.297L106.498,220.297z"/>
	<path fill="#FFFFFF" d="M104.904,221.333c0.064,0.092,0.035,0.226-0.064,0.295c-0.103,0.07-0.235,0.055-0.3-0.04
		c-0.064-0.092-0.035-0.224,0.063-0.295C104.703,221.222,104.839,221.242,104.904,221.333L104.904,221.333z"/>
	<path fill="#FFFFFF" d="M103.316,222.425c0.063,0.09,0.037,0.214-0.055,0.277c-0.092,0.065-0.217,0.045-0.279-0.043
		c-0.061-0.088-0.037-0.212,0.058-0.277C103.129,222.318,103.255,222.337,103.316,222.425L103.316,222.425z"/>
	<path fill="#FFFFFF" d="M104.994,219.93c0.063,0.092,0.033,0.224-0.066,0.294c-0.1,0.069-0.235,0.053-0.299-0.04
		c-0.065-0.091-0.036-0.226,0.063-0.295C104.794,219.82,104.929,219.837,104.994,219.93L104.994,219.93z"/>
	<path fill="#FFFFFF" d="M103.614,220.776c0.064,0.092,0.042,0.22-0.05,0.284c-0.092,0.063-0.22,0.042-0.285-0.05
		c-0.063-0.095-0.042-0.222,0.052-0.285C103.421,220.66,103.549,220.684,103.614,220.776L103.614,220.776z"/>
	<path fill="#FFFFFF" d="M102.174,221.704c0.062,0.088,0.037,0.212-0.056,0.276c-0.094,0.063-0.219,0.046-0.279-0.042
		c-0.063-0.088-0.037-0.212,0.056-0.277C101.988,221.597,102.112,221.616,102.174,221.704L102.174,221.704z"/>
	<path fill="#FFFFFF" d="M130.934,241.75c0-0.593,0.48-1.071,1.072-1.071c0.593,0,1.074,0.479,1.074,1.071
		c0,0.592-0.48,1.073-1.074,1.073C131.415,242.823,130.934,242.342,130.934,241.75L130.934,241.75z"/>
	<path fill="#FFFFFF" d="M107.706,241.75c0-0.593,0.479-1.071,1.071-1.071c0.594,0,1.073,0.479,1.073,1.071
		c0,0.592-0.479,1.073-1.073,1.073C108.185,242.823,107.706,242.342,107.706,241.75L107.706,241.75z"/>
</g>
</svg>
